<?xml version="1.0" encoding="utf-8"?>
<!-- Generator: Adobe Illustrator 15.0.0, SVG Export Plug-In . SVG Version: 6.00 Build 0)  -->
<!DOCTYPE svg PUBLIC "-//W3C//DTD SVG 1.0//EN" "http://www.w3.org/TR/2001/REC-SVG-20010904/DTD/svg10.dtd">
<svg version="1.0" id="Layer_1" xmlns="http://www.w3.org/2000/svg" xmlns:xlink="http://www.w3.org/1999/xlink" x="0px" y="0px"
	 width="32px" height="32px" viewBox="0 0 32 32" enable-background="new 0 0 32 32" xml:space="preserve">
<path d="M30.992,6.691c-1.105,0.489-2.291,0.82-3.536,0.97c1.272-0.763,2.247-1.969,2.708-3.406
	c-1.191,0.707-2.508,1.218-3.912,1.493c-1.121-1.196-2.723-1.944-4.495-1.944c-3.399,0-6.157,2.757-6.157,6.158
	c0,0.483,0.055,0.952,0.16,1.402c-5.116-0.258-9.653-2.709-12.69-6.434C2.54,5.839,2.235,6.896,2.235,8.024
	c0,2.137,1.087,4.022,2.74,5.125c-1.01-0.031-1.959-0.307-2.788-0.769c-0.001,0.027-0.001,0.052-0.001,0.079
	c0,2.983,2.123,5.472,4.938,6.039c-0.516,0.141-1.06,0.215-1.622,0.215c-0.396,0-0.78-0.037-1.158-0.11
	c0.784,2.446,3.057,4.227,5.752,4.275C7.99,24.53,5.334,25.515,2.45,25.515c-0.496,0-0.986-0.028-1.468-0.085
	c2.726,1.746,5.962,2.767,9.439,2.767c11.327,0,17.518-9.385,17.518-17.52c0-0.267-0.007-0.533-0.017-0.796
	C29.123,9.01,30.166,7.925,30.992,6.691z"/>
</svg>
