<?xml version="1.0" encoding="utf-8"?>
<!-- Generator: Adobe Illustrator 15.0.0, SVG Export Plug-In . SVG Version: 6.00 Build 0)  -->
<!DOCTYPE svg PUBLIC "-//W3C//DTD SVG 1.0//EN" "http://www.w3.org/TR/2001/REC-SVG-20010904/DTD/svg10.dtd">
<svg version="1.0" id="Layer_1" xmlns="http://www.w3.org/2000/svg" xmlns:xlink="http://www.w3.org/1999/xlink" x="0px" y="0px"
	 width="32px" height="32px" viewBox="0 0 32 32" enable-background="new 0 0 32 32" xml:space="preserve">
<path fill="#231F20" d="M28.696,1.017H3.303c-1.215,0-2.201,0.961-2.201,2.148v25.689c0,1.187,0.986,2.147,2.201,2.147h25.393
	c1.215,0,2.201-0.961,2.201-2.147V3.165C30.897,1.979,29.911,1.017,28.696,1.017z M10.134,26.116v0.002h-4.5V12.578h4.5V26.116z
	 M7.884,10.729H7.854c-1.51,0-2.487-1.041-2.487-2.34c0-1.328,1.006-2.34,2.546-2.34c1.539,0,2.487,1.012,2.516,2.34
	C10.429,9.688,9.453,10.729,7.884,10.729z M26.361,26.116h-4.5v-7.242c0-1.82-0.651-3.063-2.279-3.063
	c-1.243,0-1.984,0.837-2.31,1.646c-0.119,0.288-0.147,0.693-0.147,1.099v7.56h-4.5c0,0,0.059-12.269,0-13.539h4.5v1.918
	c0.598-0.922,1.666-2.236,4.056-2.236c2.961,0,5.182,1.936,5.182,6.094V26.116z"/>
</svg>
